<svg data-v-423bf9ae="" xmlns="http://www.w3.org/2000/svg" viewBox="0 0 418 90" class="iconLeft"><!----><!----><!----><g data-v-423bf9ae="" id="34c77a98-6ade-47c6-b066-0166959bbc2c" fill="white" transform="matrix(6.0306243896484375,0,0,6.0306243896484375,170.7128143310547,10.783273696899414)"><path d="M7.50 6.80C7.50 8.83 6.17 9.95 4.37 9.95C2.56 9.95 1.20 8.67 1.20 6.80L0.50 6.80C0.50 9.09 2.14 10.65 4.37 10.65C6.59 10.65 8.25 9.21 8.25 6.80L8.25 0.70L3.75 0.70L3.75 1.36L7.50 1.36ZM13.33 10.60C15.27 10.60 16.84 9.25 16.84 7.06C16.84 4.86 15.27 3.46 13.33 3.46C11.38 3.46 9.81 4.86 9.81 7.06C9.81 9.25 11.38 10.60 13.33 10.60ZM13.33 9.93C11.76 9.93 10.49 8.85 10.49 7.06C10.49 5.26 11.76 4.10 13.33 4.10C14.90 4.10 16.17 5.26 16.17 7.06C16.17 8.85 14.90 9.93 13.33 9.93ZM29.36 10.50L29.36 6.36C29.36 4.63 28.15 3.44 26.46 3.44C25.40 3.44 24.32 4.02 23.90 5.15C23.49 3.92 22.39 3.44 21.34 3.44C20.44 3.44 19.56 3.82 19.08 4.73L19.07 3.58L18.42 3.58L18.42 10.50L19.11 10.50L19.11 6.40C19.11 5.07 20.01 4.10 21.32 4.10C22.64 4.10 23.55 5.07 23.55 6.40L23.55 10.50L24.23 10.50L24.23 6.40C24.23 5.07 25.14 4.09 26.46 4.09C27.78 4.09 28.67 5.03 28.67 6.36L28.67 10.50ZM34.80 4.13C36.36 4.13 37.63 5.10 37.63 7.04C37.63 8.96 36.36 9.94 34.80 9.94C33.18 9.94 31.98 8.75 31.98 7.03C31.98 5.31 33.21 4.13 34.80 4.13ZM31.29 0.70L31.29 10.50L31.96 10.50L31.96 8.97C32.54 10.02 33.67 10.61 34.85 10.61C36.78 10.61 38.30 9.34 38.30 7.04C38.30 4.76 36.76 3.47 34.83 3.47C33.64 3.47 32.52 3.98 31.96 5.10L31.96 0.70ZM40.67 3.56L40.67 10.50L39.98 10.50L39.98 3.56ZM39.79 1.33C39.79 2.06 40.89 2.06 40.89 1.33C40.89 0.60 39.79 0.60 39.79 1.33Z"></path></g><!----><g data-v-423bf9ae="" id="d1a7750c-8c45-4ac0-9653-8680b93d4388" transform="matrix(4.8040032386779785,0,0,4.8040032386779785,0.13594818115234375,-31.231239318847656)" stroke="none" fill="white"><path d="M16 19.586l7.496-12.954H8.504zM7.496 12.414L0 25.368h14.992zM24.504 12.414l-7.496 12.954H32z"></path></g><!----></svg>