<svg data-v-fde0c5aa="" xmlns="http://www.w3.org/2000/svg" viewBox="0 0 300 300" class="font"><!----><defs data-v-fde0c5aa=""><!----></defs><rect data-v-fde0c5aa="" fill="transparent" x="0" y="0" width="300px" height="300px" class="logo-background-square"></rect><defs data-v-fde0c5aa=""><linearGradient data-v-fde0c5aa="" gradientTransform="rotate(25)" id="0c82ec85-5c55-44cf-b993-982656509550" x1="0%" y1="0%" x2="100%" y2="0%"><stop data-v-fde0c5aa="" offset="0%" stop-color="#E90DCA" stop-opacity="1"></stop><stop data-v-fde0c5aa="" offset="100%" stop-color="#1536F1" stop-opacity="1"></stop></linearGradient></defs><g data-v-fde0c5aa="" id="8939d3fb-74a5-46a7-bd66-9224c3ca6c67" fill="url(#0c82ec85-5c55-44cf-b993-982656509550)" transform="matrix(5.446808338165283,0,0,5.446808338165283,37.276595744680854,119.09574468085107)"><path d="M7.50 6.80C7.50 8.83 6.17 9.95 4.37 9.95C2.56 9.95 1.20 8.67 1.20 6.80L0.50 6.80C0.50 9.09 2.14 10.65 4.37 10.65C6.59 10.65 8.25 9.21 8.25 6.80L8.25 0.70L3.75 0.70L3.75 1.36L7.50 1.36ZM13.33 10.60C15.27 10.60 16.84 9.25 16.84 7.06C16.84 4.86 15.27 3.46 13.33 3.46C11.38 3.46 9.81 4.86 9.81 7.06C9.81 9.25 11.38 10.60 13.33 10.60ZM13.33 9.93C11.76 9.93 10.49 8.85 10.49 7.06C10.49 5.26 11.76 4.10 13.33 4.10C14.90 4.10 16.17 5.26 16.17 7.06C16.17 8.85 14.90 9.93 13.33 9.93ZM29.36 10.50L29.36 6.36C29.36 4.63 28.15 3.44 26.46 3.44C25.40 3.44 24.32 4.02 23.90 5.15C23.49 3.92 22.39 3.44 21.34 3.44C20.44 3.44 19.56 3.82 19.08 4.73L19.07 3.58L18.42 3.58L18.42 10.50L19.11 10.50L19.11 6.40C19.11 5.07 20.01 4.10 21.32 4.10C22.64 4.10 23.55 5.07 23.55 6.40L23.55 10.50L24.23 10.50L24.23 6.40C24.23 5.07 25.14 4.09 26.46 4.09C27.78 4.09 28.67 5.03 28.67 6.36L28.67 10.50ZM34.80 4.13C36.36 4.13 37.63 5.10 37.63 7.04C37.63 8.96 36.36 9.94 34.80 9.94C33.18 9.94 31.98 8.75 31.98 7.03C31.98 5.31 33.21 4.13 34.80 4.13ZM31.29 0.70L31.29 10.50L31.96 10.50L31.96 8.97C32.54 10.02 33.67 10.61 34.85 10.61C36.78 10.61 38.30 9.34 38.30 7.04C38.30 4.76 36.76 3.47 34.83 3.47C33.64 3.47 32.52 3.98 31.96 5.10L31.96 0.70ZM40.67 3.56L40.67 10.50L39.98 10.50L39.98 3.56ZM39.79 1.33C39.79 2.06 40.89 2.06 40.89 1.33C40.89 0.60 39.79 0.60 39.79 1.33Z"></path></g><!----><!----></svg>